# xmcd CD database file
#
# Track frame offsets:
#	150
#	21633
#	39508
#	60834
#	80210
#	95201
#	116614
#	135861
#	158754
#	178580
#	200063
#	216527
#
# Disc length: 3179 seconds
#
# Revision: 1
# Processed by: cddbd v1.5.2PL0 Copyright (c) Steve Scherf et al.
# Submitted via: CDex 1.51
#
DISCID=ad0c690c
DTITLE=Lee Roy Parnell - Back To The Well
DYEAR=2006
DGENRE=Country
TTITLE0=Back To The Well
TTITLE1=Something Out Of Nothing
TTITLE2=Just Lucky That Way
TTITLE3=Old Soul
TTITLE4=Don't Water It Down
TTITLE5=Daddies And Daughters
TTITLE6=You Can't Lose 'Em All
TTITLE7=Breaking The Chain
TTITLE8=The Hunger
TTITLE9=That's all There Is
TTITLE10=Saving Grace
TTITLE11=Cool Breeze
EXTD=YEAR: 2006
EXTT0=
EXTT1=
EXTT2=
EXTT3=
EXTT4=
EXTT5=
EXTT6=
EXTT7=
EXTT8=
EXTT9=
EXTT10=
EXTT11=
PLAYORDER=
